<svg xmlns="http://www.w3.org/2000/svg" xmlns:xlink="http://www.w3.org/1999/xlink" version="1.1" x="0px" y="0px" viewBox="0 0 100 100" enable-background="new 0 0 100 100" xml:space="preserve"><path d="M51,91.4c-23.821,0-43.2-19.379-43.2-43.2C7.8,24.379,27.179,5,51,5s43.2,19.379,43.2,43.2C94.2,72.021,74.821,91.4,51,91.4  z M51,10.4c-20.843,0-37.8,16.958-37.8,37.8S30.157,86,51,86c20.844,0,37.8-16.957,37.8-37.8S71.844,10.4,51,10.4z"></path><path d="M82.5,50c-0.994,0-1.8-0.806-1.8-1.8c0-16.377-13.323-29.7-29.7-29.7c-0.994,0-1.8-0.806-1.8-1.8c0-0.994,0.806-1.8,1.8-1.8  c18.362,0,33.3,14.938,33.3,33.3C84.3,49.194,83.494,50,82.5,50z"></path><path d="M51.159,54.844c-0.631-0.459-1.487-0.459-2.118,0L47.4,56.038V53.6H43.8v5.056l-6.114,4.447l2.117,2.912L42,64.417V72.5  c0,0.994,0.806,1.8,1.8,1.8s1.8-0.806,1.8-1.8V61.798l4.5-3.272l4.5,3.272V72.5c0,0.994,0.807,1.8,1.801,1.8s1.8-0.806,1.8-1.8  v-8.083l2.197,1.598l2.117-2.912L51.159,54.844z"></path><circle cx="33.9" cy="43.7" r="1.8"></circle><circle cx="27.6" cy="34.7" r="1.8"></circle><circle cx="22.2" cy="49.1" r="1.8"></circle><circle cx="41.1" cy="25.7" r="1.8"></circle><circle cx="43.8" cy="35.6" r="1.8"></circle><circle cx="51.45" cy="45.05" r="1.8"></circle><circle cx="54.6" cy="29.3" r="1.8"></circle><circle cx="64.5" cy="37.4" r="1.8"></circle><circle cx="63.15" cy="52.25" r="1.8"></circle><circle cx="71.7" cy="62.6" r="1.8"></circle><circle cx="73.5" cy="45.5" r="1.8"></circle><circle cx="36.6" cy="55.4" r="1.8"></circle><circle cx="26.7" cy="62.6" r="1.8"></circle><polygon points="82.917,71.6 17.283,71.6 9.838,95 90.361,95 "></polygon></svg>